<?xml version="1.0" standalone="no"?>
<!DOCTYPE svg PUBLIC "-//W3C//DTD SVG 20010904//EN"
 "http://www.w3.org/TR/2001/REC-SVG-20010904/DTD/svg10.dtd">
<svg version="1.0" xmlns="http://www.w3.org/2000/svg"
 width="148.000000pt" height="145.000000pt" viewBox="0 0 148.000000 145.000000"
 preserveAspectRatio="xMidYMid meet">

<g transform="translate(0.000000,145.000000) scale(0.100000,-0.100000)"
fill="#000000" stroke="none">
<path d="M580 1420 c19 -13 30 -13 30 0 0 6 -10 10 -22 10 -19 0 -20 -2 -8
-10z"/>
<path d="M518 1409 c-10 -5 -18 -19 -18 -29 0 -17 7 -20 40 -20 30 0 40 -4 40
-16 0 -13 3 -14 15 -4 22 18 9 30 -36 30 -42 0 -54 20 -21 39 9 6 13 10 7 10
-5 0 -18 -4 -27 -10z"/>
<path d="M657 1413 c-18 -17 14 -53 46 -52 l22 0 -22 9 c-27 11 -30 37 -5 43
11 3 8 5 -9 6 -14 0 -29 -2 -32 -6z"/>
<path d="M805 1385 c0 -38 9 -45 24 -17 6 11 6 24 0 35 -15 27 -24 20 -24 -18z"/>
<path d="M874 1375 c-2 -30 11 -33 25 -6 8 15 7 20 -5 25 -9 3 -16 6 -17 6 -1
0 -3 -11 -3 -25z"/>
<path d="M742 1378 c2 -6 10 -14 16 -16 7 -2 10 2 6 12 -7 18 -28 22 -22 4z"/>
<path d="M971 1359 c-13 -39 -14 -49 -2 -49 5 0 12 11 15 24 3 13 9 31 12 40
3 9 2 16 -4 16 -6 0 -15 -14 -21 -31z"/>
<path d="M1032 1344 c-25 -38 -26 -44 -11 -44 10 0 44 69 37 75 -2 2 -13 -12
-26 -31z"/>
<path d="M449 1336 c9 -20 20 -31 25 -25 13 12 -10 59 -28 59 -11 0 -11 -6 3
-34z"/>
<path d="M520 1325 c0 -17 9 -19 28 -6 11 7 10 10 -3 15 -23 9 -25 8 -25 -9z"/>
<path d="M407 1323 c-10 -9 -9 -33 1 -33 4 0 8 9 8 20 0 23 0 22 -9 13z"/>
<path d="M1079 1309 c-9 -18 -8 -24 7 -32 49 -27 103 -6 66 26 -32 28 -60 30
-73 6z m68 -16 c2 -6 -7 -13 -20 -15 -18 -4 -23 0 -25 18 -1 20 1 22 20 15 12
-4 24 -13 25 -18z"/>
<path d="M343 1286 c25 -28 32 -27 22 3 -3 12 -15 21 -25 21 -17 0 -17 -2 3
-24z"/>
<path d="M650 1300 c-247 -39 -445 -225 -494 -463 -20 -96 -20 -138 0 -235 47
-231 227 -408 464 -458 307 -64 620 148 685 464 19 92 19 132 0 224 -42 205
-199 380 -395 442 -89 28 -184 38 -260 26z m271 -49 c164 -63 287 -189 347
-355 35 -97 36 -249 2 -346 -31 -90 -71 -157 -127 -216 -48 -50 -148 -124
-168 -124 -6 0 -9 27 -7 69 3 56 -1 81 -22 131 -22 57 -23 65 -10 85 25 39 -8
94 -57 96 -13 0 -39 1 -56 1 -35 1 -43 12 -18 22 22 8 18 25 -7 35 -28 11 -35
6 -19 -13 18 -21 -4 -30 -40 -16 -33 14 -38 30 -9 30 11 0 20 5 20 11 0 6 -12
8 -30 6 -18 -3 -34 0 -41 9 -6 8 -20 12 -30 9 -9 -3 -20 -2 -23 3 -9 15 -136
21 -191 10 -16 -4 -39 -7 -51 -7 -30 -1 -67 -39 -60 -64 4 -15 -10 -34 -54
-78 l-58 -57 -16 39 c-9 22 -21 74 -27 115 -41 271 141 543 414 619 78 22 265
15 338 -14z m-461 -588 c-1 -24 -2 -26 -11 -10 -5 9 -7 22 -4 27 10 17 15 11
15 -17z m50 12 c10 -12 10 -18 0 -30 -7 -8 -16 -12 -22 -9 -5 4 -5 11 1 18 7
9 7 16 -1 24 -8 8 -8 12 -1 12 6 0 16 -7 23 -15z m115 -13 c-3 -3 -11 0 -18 7
-9 10 -8 11 6 5 10 -3 15 -9 12 -12z m-50 -11 c3 -6 -2 -14 -11 -19 -26 -15
50 -26 78 -11 17 9 24 9 33 -5 7 -8 15 -12 19 -8 4 4 12 -1 17 -10 5 -10 25
-20 44 -24 20 -3 38 -11 42 -16 3 -6 14 -1 24 13 15 19 19 21 19 7 0 -9 -5
-20 -11 -24 -8 -4 -8 -9 0 -17 25 -25 8 -30 -87 -25 -92 6 -262 46 -286 69 -6
5 -18 9 -28 9 -10 0 -18 4 -18 8 0 20 25 29 69 24 43 -4 49 -2 54 17 5 21 31
29 42 12z m-155 -11 c0 -5 -7 -10 -15 -10 -8 0 -15 5 -15 10 0 6 7 10 15 10 8
0 15 -4 15 -10z m208 -8 c2 -7 -5 -12 -17 -12 -14 0 -19 5 -14 15 6 17 25 15
31 -3z"/>
<path d="M268 1262 c-21 -13 -38 -27 -38 -31 1 -14 39 -55 46 -48 4 4 2 13 -4
19 -15 15 -16 45 -1 53 5 4 19 -1 30 -11 20 -18 20 -18 13 11 -4 17 -7 31 -8
31 -1 1 -18 -10 -38 -24z"/>
<path d="M1050 1270 c0 -5 5 -10 11 -10 5 0 7 5 4 10 -3 6 -8 10 -11 10 -2 0
-4 -4 -4 -10z"/>
<path d="M1187 1246 c-25 -26 -34 -46 -23 -46 14 0 57 51 54 62 -3 8 -14 3
-31 -16z"/>
<path d="M1105 1251 c-6 -11 9 -23 19 -14 9 9 7 23 -3 23 -6 0 -12 -4 -16 -9z"/>
<path d="M174 1178 c-13 -16 -14 -19 -3 -10 9 7 22 11 29 10 7 -2 15 3 17 10
8 20 -23 13 -43 -10z"/>
<path d="M1231 1173 c-24 -23 -24 -23 -2 -23 12 0 24 7 27 15 11 27 -1 30 -25
8z"/>
<path d="M206 1135 c-18 -27 -42 -34 -32 -9 3 8 2 13 -3 9 -5 -3 -12 1 -14 7
-3 7 -6 1 -6 -14 -1 -15 3 -29 9 -33 13 -8 47 15 59 42 14 30 7 29 -13 -2z"/>
<path d="M1283 1122 c-6 -10 -7 -26 -2 -40 11 -28 16 -28 15 1 -1 15 4 22 17
21 22 -2 22 13 -1 25 -13 7 -21 5 -29 -7z"/>
<path d="M79 1063 c-13 -16 -12 -17 4 -4 9 7 17 15 17 17 0 8 -8 3 -21 -13z"/>
<path d="M119 1059 c-9 -17 -8 -23 2 -30 17 -11 21 -11 39 1 12 8 12 10 -3 16
-10 4 -16 13 -13 20 9 22 -12 16 -25 -7z"/>
<path d="M1370 1050 c0 -5 5 -10 10 -10 6 0 10 5 10 10 0 6 -4 10 -10 10 -5 0
-10 -4 -10 -10z"/>
<path d="M1370 976 c0 -13 -4 -28 -10 -31 -5 -3 -10 -1 -10 6 0 7 -2 10 -5 7
-9 -9 7 -38 21 -38 9 0 14 11 14 31 0 20 4 28 11 23 7 -4 10 -1 7 6 -8 25 -28
22 -28 -4z"/>
<path d="M1330 979 c0 -5 5 -7 10 -4 6 3 10 8 10 11 0 2 -4 4 -10 4 -5 0 -10
-5 -10 -11z"/>
<path d="M41 955 c-1 -25 17 -45 40 -45 18 0 49 35 49 54 0 6 -7 0 -16 -12
-19 -28 -37 -28 -57 1 -15 21 -16 21 -16 2z"/>
<path d="M1102 198 c-7 -7 -12 -20 -12 -30 0 -13 8 -18 31 -18 36 0 35 -21 -2
-32 -22 -6 -21 -7 6 -5 22 2 31 7 33 24 3 17 -3 22 -24 25 -35 4 -41 22 -12
36 15 7 18 11 8 11 -9 1 -21 -4 -28 -11z"/>
<path d="M316 181 c-27 -30 -17 -71 23 -98 34 -23 71 -30 71 -14 0 5 -12 9
-27 8 -26 0 -73 41 -73 64 0 16 39 49 59 49 10 0 30 -10 45 -21 15 -12 29 -19
32 -16 3 3 -8 14 -24 26 -37 26 -83 27 -106 2z"/>
<path d="M1004 136 c-19 -10 -19 -14 -8 -43 8 -17 19 -35 25 -39 9 -5 10 -2 5
12 -17 41 -18 56 -5 65 22 14 29 11 39 -16 11 -28 33 -35 23 -7 -15 43 -38 51
-79 28z"/>
<path d="M460 102 c0 -11 -3 -29 -6 -39 -4 -11 3 -7 18 11 14 17 30 26 36 22
7 -4 12 -2 12 3 0 6 -6 11 -14 11 -8 0 -21 3 -30 6 -11 4 -16 0 -16 -14z"/>
<path d="M886 88 c-13 -19 -14 -25 -2 -43 19 -29 40 -30 71 -2 24 20 26 26 16
45 -16 30 -64 30 -85 0z m72 -15 c4 -30 -34 -51 -55 -30 -10 9 -13 23 -8 36 9
31 59 26 63 -6z"/>
<path d="M534 75 c-16 -24 -16 -27 1 -45 20 -22 50 -26 61 -8 5 8 2 9 -11 5
-17 -7 -45 7 -45 23 0 5 18 6 40 3 25 -4 40 -2 40 5 0 48 -58 59 -86 17z m66
-1 c0 -9 -7 -14 -17 -12 -25 5 -28 28 -4 28 12 0 21 -6 21 -16z"/>
<path d="M665 73 c33 -8 42 -23 13 -23 -28 0 -53 -23 -43 -40 10 -16 25 -12
19 5 -8 19 25 33 36 14 5 -7 6 -17 4 -21 -3 -4 0 -8 6 -8 7 0 10 15 8 38 -3
33 -6 37 -33 39 -18 1 -22 -1 -10 -4z"/>
<path d="M752 71 c-22 -13 12 -71 41 -70 l22 0 -22 9 c-13 6 -23 18 -23 30 0
14 7 20 23 21 21 0 21 1 2 9 -26 11 -28 11 -43 1z"/>
<path d="M837 48 c8 -46 13 -48 13 -5 0 21 -4 37 -10 37 -5 0 -7 -14 -3 -32z"/>
</g>
</svg>
