<svg width="136" height="127" viewBox="0 0 136 127" fill="none" xmlns="http://www.w3.org/2000/svg">
<path d="M68 3.5C103.852 3.5 132.5 30.5848 132.5 63.5C132.5 96.4152 103.852 123.5 68 123.5C32.1481 123.5 3.5 96.4152 3.5 63.5C3.5 30.5848 32.1481 3.5 68 3.5Z" fill="white" stroke="black" stroke-width="7"/>
<path d="M68.5 24.5C80.6029 24.5 90.5 34.5257 90.5 47C90.5 59.4743 80.6029 69.5 68.5 69.5C56.3971 69.5 46.5 59.4743 46.5 47C46.5 34.5257 56.3971 24.5 68.5 24.5Z" fill="white" stroke="black" stroke-width="5"/>
<g filter="url(#filter0_d_35_13)">
<mask id="path-3-inside-1_35_13" fill="white">
<path d="M68.5 69.5977C90.8675 69.5977 109 87.6864 109 110H28C28.0001 87.6864 46.1325 69.5977 68.5 69.5977Z"/>
</mask>
<path d="M68.5 69.5977C90.8675 69.5977 109 87.6864 109 110H28C28.0001 87.6864 46.1325 69.5977 68.5 69.5977Z" fill="white"/>
<path d="M109 110V115H114L114 110L109 110ZM28 110L23 110L23 115H28V110ZM68.5 69.5977V74.5977C88.1174 74.5977 104 90.4592 104 110L109 110L114 110C114 84.9136 93.6175 64.5977 68.5 64.5977V69.5977ZM109 110V105H28V110V115H109V110ZM28 110L33 110C33.0001 90.4592 48.8826 74.5977 68.5 74.5977V69.5977V64.5977C43.3825 64.5977 23.0001 84.9136 23 110L28 110Z" fill="black" mask="url(#path-3-inside-1_35_13)"/>
</g>
<line x1="25.8277" y1="16.7831" x2="104.828" y2="110.783" stroke="black" stroke-width="10"/>
<defs>
<filter id="filter0_d_35_13" x="24" y="69.5977" width="89" height="48.4023" filterUnits="userSpaceOnUse" color-interpolation-filters="sRGB">
<feFlood flood-opacity="0" result="BackgroundImageFix"/>
<feColorMatrix in="SourceAlpha" type="matrix" values="0 0 0 0 0 0 0 0 0 0 0 0 0 0 0 0 0 0 127 0" result="hardAlpha"/>
<feOffset dy="4"/>
<feGaussianBlur stdDeviation="2"/>
<feComposite in2="hardAlpha" operator="out"/>
<feColorMatrix type="matrix" values="0 0 0 0 0 0 0 0 0 0 0 0 0 0 0 0 0 0 0.25 0"/>
<feBlend mode="normal" in2="BackgroundImageFix" result="effect1_dropShadow_35_13"/>
<feBlend mode="normal" in="SourceGraphic" in2="effect1_dropShadow_35_13" result="shape"/>
</filter>
</defs>
</svg>
