<svg width="143" height="146" viewBox="0 0 143 146" fill="none" xmlns="http://www.w3.org/2000/svg">
<rect y="-3.53553" width="20.7647" height="23.9853" transform="matrix(0.707107 -0.707107 -0.707107 -0.707107 109.246 127.149)" fill="white" stroke="black" stroke-width="5"/>
<rect y="-3.53553" width="20.7647" height="23.9853" transform="matrix(0.707107 -0.707107 -0.707107 -0.707107 28.7314 42.3404)" fill="white" stroke="black" stroke-width="5"/>
<rect x="-3.53553" width="20.7647" height="23.9853" transform="matrix(-0.707107 -0.707107 -0.707107 0.707107 43.4142 109.116)" fill="white" stroke="black" stroke-width="5"/>
<rect x="-3.53553" width="20.7647" height="23.9853" transform="matrix(-0.707107 -0.707107 -0.707107 0.707107 123.929 26.4541)" fill="white" stroke="black" stroke-width="5"/>
<rect x="26.4854" y="61.5439" width="20.7647" height="23.9853" transform="rotate(90 26.4854 61.5439)" fill="white" stroke="black" stroke-width="5"/>
<rect x="140.279" y="61.5439" width="20.7647" height="23.9853" transform="rotate(90 140.279 61.5439)" fill="white" stroke="black" stroke-width="5"/>
<path d="M70.3169 26.1177C95.2934 26.1179 115.588 46.6006 115.588 71.9263C115.588 97.252 95.2935 117.735 70.3169 117.735C45.3401 117.735 25.0444 97.2522 25.0444 71.9263C25.0445 46.6005 45.3402 26.1177 70.3169 26.1177Z" fill="white" stroke="black" stroke-width="5"/>
<rect x="59.397" y="119.515" width="20.7647" height="23.9853" fill="white" stroke="black" stroke-width="5"/>
<path d="M69.7793 59.397C76.7854 59.397 82.3083 64.8509 82.3086 71.3892C82.3086 77.9276 76.7856 83.3823 69.7793 83.3823C62.7731 83.3823 57.25 77.9276 57.25 71.3892C57.2503 64.851 62.7732 59.397 69.7793 59.397Z" fill="#D9D9D9" stroke="black" stroke-width="5"/>
<rect x="59.397" y="2.5" width="20.7647" height="23.9853" fill="white" stroke="black" stroke-width="5"/>
</svg>
