<svg width="122" height="138" viewBox="0 0 122 138" fill="none" xmlns="http://www.w3.org/2000/svg">
<rect x="3" y="20" width="116" height="115" rx="12" fill="white" stroke="black" stroke-width="6"/>
<rect x="67.5" y="1.5" width="14" height="29" fill="white" stroke="black" stroke-width="3"/>
<rect x="90.5" y="113.5" width="14" height="14" rx="2.5" fill="#D9D9D9" stroke="black" stroke-width="3"/>
<rect x="66.5" y="113.5" width="14" height="14" rx="2.5" fill="#D9D9D9" stroke="black" stroke-width="3"/>
<rect x="42.5" y="113.5" width="14" height="14" rx="2.5" fill="#D9D9D9" stroke="black" stroke-width="3"/>
<rect x="18.5" y="113.5" width="14" height="14" rx="2.5" fill="#D9D9D9" stroke="black" stroke-width="3"/>
<rect x="90.5" y="89.5" width="14" height="14" rx="2.5" fill="#D9D9D9" stroke="black" stroke-width="3"/>
<rect x="66.5" y="89.5" width="14" height="14" rx="2.5" fill="#D9D9D9" stroke="black" stroke-width="3"/>
<rect x="42.5" y="89.5" width="14" height="14" rx="2.5" fill="#D9D9D9" stroke="black" stroke-width="3"/>
<rect x="18.5" y="89.5" width="14" height="14" rx="2.5" fill="#D9D9D9" stroke="black" stroke-width="3"/>
<rect x="90.5" y="65.5" width="14" height="14" rx="2.5" fill="#D9D9D9" stroke="black" stroke-width="3"/>
<rect x="66.5" y="65.5" width="14" height="14" rx="2.5" fill="#D9D9D9" stroke="black" stroke-width="3"/>
<rect x="42.5" y="65.5" width="14" height="14" rx="2.5" fill="#D9D9D9" stroke="black" stroke-width="3"/>
<rect x="19" y="41" width="85" height="11" rx="5.5" fill="white" stroke="black" stroke-width="4"/>
<rect x="18.5" y="65.5" width="14" height="14" rx="2.5" fill="#D9D9D9" stroke="black" stroke-width="3"/>
<rect x="17.5" y="1.5" width="14" height="29" fill="white" stroke="black" stroke-width="3"/>
<rect x="42.5" y="1.5" width="14" height="29" fill="white" stroke="black" stroke-width="3"/>
<rect x="91.5" y="1.5" width="14" height="29" fill="white" stroke="black" stroke-width="3"/>
</svg>
