<svg width="142" height="117" viewBox="0 0 142 117" fill="none" xmlns="http://www.w3.org/2000/svg">
<path d="M26.647 24H139.647L121.147 78H48.647L26.647 24Z" fill="white"/>
<path d="M1.6473 7.72653C1.6473 7.72653 20.0711 -4.50184 25.357 18.4714" stroke="black" stroke-width="6"/>
<line y1="-3" x2="72.1395" y2="-3" transform="matrix(-0.375616 -0.926775 0.910832 -0.412777 52.4536 76.4082)" stroke="black" stroke-width="6"/>
<line x1="25.6475" y1="23" x2="141.647" y2="23" stroke="black" stroke-width="6"/>
<line x1="45.6475" y1="77" x2="123.647" y2="77" stroke="black" stroke-width="6"/>
<line y1="-3" x2="54.8074" y2="-3" transform="matrix(0.3502 -0.936675 0.922621 0.385707 122.454 77.6021)" stroke="black" stroke-width="6"/>
<circle cx="59.147" cy="105.5" r="8.5" fill="white" stroke="black" stroke-width="6"/>
<path d="M110.034 97.3164C114.599 97.3164 118.325 101.038 118.325 105.658C118.325 110.278 114.599 114 110.034 114C105.468 114 101.744 110.278 101.744 105.658C101.744 101.038 105.468 97.3166 110.034 97.3164Z" fill="white" stroke="black" stroke-width="6"/>
<line x1="45.647" y1="88" x2="123.647" y2="88" stroke="black" stroke-width="6"/>
</svg>
