<svg width="173" height="98" viewBox="0 0 173 98" fill="none" xmlns="http://www.w3.org/2000/svg">
<mask id="path-1-inside-1_35_14" fill="white">
<rect x="18" y="10" width="138" height="88" rx="5"/>
</mask>
<rect x="18" y="10" width="138" height="88" rx="5" fill="white" stroke="black" stroke-width="18" mask="url(#path-1-inside-1_35_14)"/>
<path d="M86.9824 51.3096C86.6821 51.4749 86.3179 51.4749 86.0176 51.3096L26.6631 18.626C26.3711 18.4652 26.2572 18.2894 26.2012 18.1465C26.1344 17.976 26.1135 17.747 26.1768 17.501C26.24 17.255 26.369 17.0645 26.5098 16.9473C26.6278 16.8491 26.8122 16.75 27.1455 16.75H145.854C146.188 16.75 146.372 16.8491 146.49 16.9473C146.631 17.0645 146.76 17.255 146.823 17.501C146.886 17.747 146.866 17.976 146.799 18.1465C146.743 18.2894 146.629 18.4652 146.337 18.626L86.9824 51.3096Z" fill="white" stroke="black" stroke-width="6"/>
</svg>
